{
  "accessors": [
    {
      "bufferView": 2,
      "componentType": 5126,
      "count": 296,
      "max": [
        2.9904115200042725,
        1.638375997543335,
        1.0
      ],
      "min": [
        -2.9904115200042725,
        -1.3076962232589722,
        -1.0
      ],
      "type": "VEC3"
    },
    {
      "bufferView": 2,
      "byteOffset": 3552,
      "componentType": 5126,
      "count": 296,
      "max": [
        1.0,
        1.0,
        1.0
      ],
      "min": [
        -1.0,
        -6.717786504850665e-08,
        -1.0
      ],
      "type": "VEC3"
    },
    {
      "bufferView": 1,
      "componentType": 5126,
      "count": 296,
      "max": [
        0.6250000596046448,
        1.0
      ],
      "min": [
        0.125,
        0.0
      ],
      "type": "VEC2"
    },
    {
      "bufferView": 0,
      "componentType": 5125,
      "count": 1302,
      "type": "SCALAR"
    },
    {
      "bufferView": 2,
      "byteOffset": 7104,
      "componentType": 5126,
      "count": 3818,
      "max": [
        3.1532177925109863,
        1.8795232772827148,
        1.1628062725067139
      ],
      "min": [
        -3.1532177925109863,
        -1.6110440492630005,
        -1.1628062725067139
      ],
      "type": "VEC3"
    },
    {
      "bufferView": 2,
      "byteOffset": 52920,
      "componentType": 5126,
      "count": 3818,
      "max": [
        1.0,
        1.0,
        1.0
      ],
      "min": [
        -1.0,
        -1.0,
        -1.0
      ],
      "type": "VEC3"
    },
    {
      "bufferView": 1,
      "byteOffset": 2368,
      "componentType": 5126,
      "count": 3818,
      "max": [
        0.8750001192092896,
        1.0
      ],
      "min": [
        0.1249999925494194,
        -1.4974714758864138e-05
      ],
      "type": "VEC2"
    },
    {
      "bufferView": 0,
      "byteOffset": 5208,
      "componentType": 5125,
      "count": 19266,
      "type": "SCALAR"
    },
    {
      "bufferView": 2,
      "byteOffset": 98736,
      "componentType": 5126,
      "count": 1668,
      "max": [
        1.068264365196228,
        0.4158667027950287,
        1.068264365196228
      ],
      "min": [
        -1.068264365196228,
        -0.4158667027950287,
        -1.068264365196228
      ],
      "type": "VEC3"
    },
    {
      "bufferView": 2,
      "byteOffset": 118752,
      "componentType": 5126,
      "count": 1668,
      "max": [
        1.0,
        1.0,
        1.0
      ],
      "min": [
        -1.0,
        -1.0,
        -1.0
      ],
      "type": "VEC3"
    },
    {
      "bufferView": 1,
      "byteOffset": 32912,
      "componentType": 5126,
      "count": 1668,
      "max": [
        1.0,
        1.0
      ],
      "min": [
        0.0,
        0.01000000536441803
      ],
      "type": "VEC2"
    },
    {
      "bufferView": 0,
      "byteOffset": 82272,
      "componentType": 5125,
      "count": 5946,
      "type": "SCALAR"
    },
    {
      "bufferView": 2,
      "byteOffset": 138768,
      "componentType": 5126,
      "count": 64,
      "max": [
        0.8903147578239441,
        0.3619368076324463,
        0.8903147578239441
      ],
      "min": [
        -0.8903147578239441,
        0.3619368076324463,
        -0.8903147578239441
      ],
      "type": "VEC3"
    },
    {
      "bufferView": 2,
      "byteOffset": 139536,
      "componentType": 5126,
      "count": 64,
      "max": [
        -1.1987012271674757e-08,
        1.0,
        -0.0
      ],
      "min": [
        -1.1987014048031597e-08,
        1.0,
        -0.0
      ],
      "type": "VEC3"
    },
    {
      "bufferView": 1,
      "byteOffset": 46256,
      "componentType": 5126,
      "count": 64,
      "max": [
        0.0,
        0.0
      ],
      "min": [
        0.0,
        0.0
      ],
      "type": "VEC2"
    },
    {
      "bufferView": 0,
      "byteOffset": 106056,
      "componentType": 5125,
      "count": 186,
      "type": "SCALAR"
    },
    {
      "bufferView": 2,
      "byteOffset": 140304,
      "componentType": 5126,
      "count": 194,
      "max": [
        0.8903147578239441,
        0.3619368076324463,
        0.8903147578239441
      ],
      "min": [
        -0.8903147578239441,
        -0.15820854902267456,
        -0.8903147578239441
      ],
      "type": "VEC3"
    },
    {
      "bufferView": 2,
      "byteOffset": 142632,
      "componentType": 5126,
      "count": 194,
      "max": [
        1.0,
        1.0,
        1.0
      ],
      "min": [
        -1.0,
        0.0,
        -1.0
      ],
      "type": "VEC3"
    },
    {
      "bufferView": 1,
      "byteOffset": 46768,
      "componentType": 5126,
      "count": 194,
      "max": [
        1.0,
        0.8751853704452515
      ],
      "min": [
        0.0,
        0.01000000536441803
      ],
      "type": "VEC2"
    },
    {
      "bufferView": 0,
      "byteOffset": 106800,
      "componentType": 5125,
      "count": 570,
      "type": "SCALAR"
    },
    {
      "bufferView": 2,
      "byteOffset": 144960,
      "componentType": 5126,
      "count": 560,
      "max": [
        1.4596670866012573,
        0.21634626388549805,
        1.0
      ],
      "min": [
        -1.4596670866012573,
        0.0,
        -1.0
      ],
      "type": "VEC3"
    },
    {
      "bufferView": 2,
      "byteOffset": 151680,
      "componentType": 5126,
      "count": 560,
      "max": [
        0.9995456337928772,
        1.0,
        0.999899685382843
      ],
      "min": [
        -0.9995456337928772,
        -1.0,
        -0.999899685382843
      ],
      "type": "VEC3"
    },
    {
      "bufferView": 1,
      "byteOffset": 48320,
      "componentType": 5126,
      "count": 560,
      "max": [
        1.0,
        1.0
      ],
      "min": [
        0.0,
        0.0
      ],
      "type": "VEC2"
    },
    {
      "bufferView": 0,
      "byteOffset": 109080,
      "componentType": 5125,
      "count": 1674,
      "type": "SCALAR"
    },
    {
      "bufferView": 2,
      "byteOffset": 158400,
      "componentType": 5126,
      "count": 80,
      "max": [
        1.3752800226211548,
        0.02285735309123993,
        0.942187488079071
      ],
      "min": [
        -1.3752800226211548,
        0.02285735309123993,
        -0.942187488079071
      ],
      "type": "VEC3"
    },
    {
      "bufferView": 2,
      "byteOffset": 159360,
      "componentType": 5126,
      "count": 80,
      "max": [
        -2.433986900918228e-10,
        -1.0,
        -0.0
      ],
      "min": [
        -2.433987178473984e-10,
        -1.0,
        -0.0
      ],
      "type": "VEC3"
    },
    {
      "bufferView": 1,
      "byteOffset": 52800,
      "componentType": 5126,
      "count": 80,
      "max": [
        0.0,
        0.0
      ],
      "min": [
        0.0,
        0.0
      ],
      "type": "VEC2"
    },
    {
      "bufferView": 0,
      "byteOffset": 115776,
      "componentType": 5125,
      "count": 234,
      "type": "SCALAR"
    },
    {
      "bufferView": 2,
      "byteOffset": 160320,
      "componentType": 5126,
      "count": 240,
      "max": [
        1.3752800226211548,
        0.032653361558914185,
        0.942187488079071
      ],
      "min": [
        -1.3752800226211548,
        0.02285735309123993,
        -0.942187488079071
      ],
      "type": "VEC3"
    },
    {
      "bufferView": 2,
      "byteOffset": 163200,
      "componentType": 5126,
      "count": 240,
      "max": [
        0.9995456337928772,
        0.0,
        0.999899685382843
      ],
      "min": [
        -0.9995456337928772,
        -1.0,
        -0.999899685382843
      ],
      "type": "VEC3"
    },
    {
      "bufferView": 1,
      "byteOffset": 53440,
      "componentType": 5126,
      "count": 240,
      "max": [
        1.0,
        1.0
      ],
      "min": [
        0.0,
        0.0
      ],
      "type": "VEC2"
    },
    {
      "bufferView": 0,
      "byteOffset": 116712,
      "componentType": 5125,
      "count": 714,
      "type": "SCALAR"
    },
    {
      "bufferView": 2,
      "byteOffset": 166080,
      "componentType": 5126,
      "count": 1346,
      "max": [
        1.0,
        1.0,
        1.0
      ],
      "min": [
        -1.0,
        -1.0,
        -1.0
      ],
      "type": "VEC3"
    },
    {
      "bufferView": 2,
      "byteOffset": 182232,
      "componentType": 5126,
      "count": 1346,
      "max": [
        1.0,
        0.9993241429328918,
        1.0
      ],
      "min": [
        -1.0,
        -1.0,
        -1.0
      ],
      "type": "VEC3"
    },
    {
      "bufferView": 1,
      "byteOffset": 55360,
      "componentType": 5126,
      "count": 1346,
      "max": [
        1.0,
        1.0
      ],
      "min": [
        0.0,
        0.01000000536441803
      ],
      "type": "VEC2"
    },
    {
      "bufferView": 0,
      "byteOffset": 119568,
      "componentType": 5125,
      "count": 4980,
      "type": "SCALAR"
    },
    {
      "bufferView": 2,
      "byteOffset": 198384,
      "componentType": 5126,
      "count": 1346,
      "max": [
        1.0,
        1.0,
        1.0
      ],
      "min": [
        -1.0,
        -1.0,
        -1.0
      ],
      "type": "VEC3"
    },
    {
      "bufferView": 2,
      "byteOffset": 214536,
      "componentType": 5126,
      "count": 1346,
      "max": [
        1.0,
        0.9993241429328918,
        1.0
      ],
      "min": [
        -1.0,
        -1.0,
        -1.0
      ],
      "type": "VEC3"
    },
    {
      "bufferView": 1,
      "byteOffset": 66128,
      "componentType": 5126,
      "count": 1346,
      "max": [
        1.0,
        1.0
      ],
      "min": [
        0.0,
        0.01000000536441803
      ],
      "type": "VEC2"
    },
    {
      "bufferView": 0,
      "byteOffset": 139488,
      "componentType": 5125,
      "count": 4980,
      "type": "SCALAR"
    }
  ],
  "asset": {
    "extras": {
      "author": "Lkibadur_3d (https://sketchfab.com/Lkibadur_3d)",
      "license": "CC-BY-4.0 (http://creativecommons.org/licenses/by/4.0/)",
      "source": "https://sketchfab.com/3d-models/3d-low-poly-camera-2c4b6ae934244de8ad666631fb8f1756",
      "title": "3d Low Poly Camera"
    },
    "generator": "Sketchfab-15.10.0",
    "version": "2.0"
  },
  "bufferViews": [
    {
      "buffer": 0,
      "byteLength": 159408,
      "name": "floatBufferViews",
      "target": 34963
    },
    {
      "buffer": 0,
      "byteLength": 76896,
      "byteOffset": 159408,
      "byteStride": 8,
      "name": "floatBufferViews",
      "target": 34962
    },
    {
      "buffer": 0,
      "byteLength": 230688,
      "byteOffset": 236304,
      "byteStride": 12,
      "name": "floatBufferViews",
      "target": 34962
    }
  ],
  "buffers": [
    {
      "byteLength": 466992,
      "uri": "scene.bin"
    }
  ],
  "materials": [
    {
      "doubleSided": true,
      "name": "material_0",
      "pbrMetallicRoughness": {
        "metallicFactor": 0.0,
        "roughnessFactor": 0.6
      }
    },
    {
      "doubleSided": true,
      "name": "Material",
      "pbrMetallicRoughness": {
        "baseColorFactor": [
          0.0,
          0.0,
          0.0,
          1.0
        ],
        "metallicFactor": 0.0,
        "roughnessFactor": 0.5
      }
    },
    {
      "doubleSided": true,
      "name": "Material.012",
      "pbrMetallicRoughness": {
        "baseColorFactor": [
          0.214034,
          0.214034,
          0.214034,
          1.0
        ],
        "metallicFactor": 0.0,
        "roughnessFactor": 0.5
      }
    },
    {
      "doubleSided": true,
      "name": "Material.013",
      "pbrMetallicRoughness": {
        "baseColorFactor": [
          0.214,
          0.214,
          0.214,
          1.0
        ],
        "metallicFactor": 0.0,
        "roughnessFactor": 0.5
      }
    },
    {
      "doubleSided": true,
      "name": "Material.014",
      "pbrMetallicRoughness": {
        "baseColorFactor": [
          0.133,
          0.133,
          0.133,
          1.0
        ],
        "metallicFactor": 0.0,
        "roughnessFactor": 0.1
      }
    },
    {
      "doubleSided": true,
      "name": "Material.017",
      "pbrMetallicRoughness": {
        "baseColorFactor": [
          0.214,
          0.214,
          0.214,
          1.0
        ],
        "metallicFactor": 0.0,
        "roughnessFactor": 0.5
      }
    },
    {
      "doubleSided": true,
      "name": "Material.018",
      "pbrMetallicRoughness": {
        "baseColorFactor": [
          0.132863,
          0.132863,
          0.132863,
          1.0
        ],
        "metallicFactor": 0.0,
        "roughnessFactor": 0.1
      }
    },
    {
      "doubleSided": true,
      "name": "Material.015",
      "pbrMetallicRoughness": {
        "baseColorFactor": [
          0.220257,
          0.0,
          0.00096,
          1.0
        ],
        "metallicFactor": 0.0,
        "roughnessFactor": 0.5
      }
    },
    {
      "doubleSided": true,
      "name": "Material.016",
      "pbrMetallicRoughness": {
        "baseColorFactor": [
          0.22,
          0.0,
          0.00132001,
          1.0
        ],
        "metallicFactor": 0.0,
        "roughnessFactor": 0.5
      }
    }
  ],
  "meshes": [
    {
      "name": "Object_0",
      "primitives": [
        {
          "attributes": {
            "NORMAL": 1,
            "POSITION": 0,
            "TEXCOORD_0": 2
          },
          "indices": 3,
          "material": 1,
          "mode": 4
        }
      ]
    },
    {
      "name": "Object_1",
      "primitives": [
        {
          "attributes": {
            "NORMAL": 5,
            "POSITION": 4,
            "TEXCOORD_0": 6
          },
          "indices": 7,
          "material": 2,
          "mode": 4
        }
      ]
    },
    {
      "name": "Object_2",
      "primitives": [
        {
          "attributes": {
            "NORMAL": 9,
            "POSITION": 8,
            "TEXCOORD_0": 10
          },
          "indices": 11,
          "material": 3,
          "mode": 4
        }
      ]
    },
    {
      "name": "Object_3",
      "primitives": [
        {
          "attributes": {
            "NORMAL": 13,
            "POSITION": 12,
            "TEXCOORD_0": 14
          },
          "indices": 15,
          "material": 4,
          "mode": 4
        }
      ]
    },
    {
      "name": "Object_4",
      "primitives": [
        {
          "attributes": {
            "NORMAL": 17,
            "POSITION": 16,
            "TEXCOORD_0": 18
          },
          "indices": 19,
          "material": 0,
          "mode": 4
        }
      ]
    },
    {
      "name": "Object_5",
      "primitives": [
        {
          "attributes": {
            "NORMAL": 21,
            "POSITION": 20,
            "TEXCOORD_0": 22
          },
          "indices": 23,
          "material": 5,
          "mode": 4
        }
      ]
    },
    {
      "name": "Object_6",
      "primitives": [
        {
          "attributes": {
            "NORMAL": 25,
            "POSITION": 24,
            "TEXCOORD_0": 26
          },
          "indices": 27,
          "material": 6,
          "mode": 4
        }
      ]
    },
    {
      "name": "Object_7",
      "primitives": [
        {
          "attributes": {
            "NORMAL": 29,
            "POSITION": 28,
            "TEXCOORD_0": 30
          },
          "indices": 31,
          "material": 0,
          "mode": 4
        }
      ]
    },
    {
      "name": "Object_8",
      "primitives": [
        {
          "attributes": {
            "NORMAL": 33,
            "POSITION": 32,
            "TEXCOORD_0": 34
          },
          "indices": 35,
          "material": 7,
          "mode": 4
        }
      ]
    },
    {
      "name": "Object_9",
      "primitives": [
        {
          "attributes": {
            "NORMAL": 37,
            "POSITION": 36,
            "TEXCOORD_0": 38
          },
          "indices": 39,
          "material": 8,
          "mode": 4
        }
      ]
    }
  ],
  "nodes": [
    {
      "children": [
        1
      ],
      "matrix": [
        1.0,
        0.0,
        0.0,
        0.0,
        0.0,
        2.220446049250313e-16,
        -1.0,
        0.0,
        0.0,
        1.0,
        2.220446049250313e-16,
        0.0,
        0.0,
        0.0,
        0.0,
        1.0
      ],
      "name": "Sketchfab_model"
    },
    {
      "children": [
        2
      ],
      "name": "root"
    },
    {
      "children": [
        3,
        6,
        10,
        14,
        16
      ],
      "matrix": [
        1.0,
        0.0,
        0.0,
        0.0,
        0.0,
        2.220446049250313e-16,
        1.0,
        0.0,
        0.0,
        -1.0,
        2.220446049250313e-16,
        0.0,
        0.0,
        0.0,
        0.0,
        1.0
      ],
      "name": "GLTF_SceneRootNode"
    },
    {
      "children": [
        4,
        5
      ],
      "name": "Cube_3"
    },
    {
      "mesh": 0,
      "name": "Object_4"
    },
    {
      "mesh": 1,
      "name": "Object_5"
    },
    {
      "children": [
        7,
        8,
        9
      ],
      "matrix": [
        1.0606693029403687,
        0.0,
        0.0,
        0.0,
        0.0,
        0.0,
        1.0606693029403687,
        0.0,
        0.0,
        -1.0606693029403687,
        0.0,
        0.0,
        0.08169528096914291,
        0.14506791532039642,
        0.7628558874130249,
        1.0
      ],
      "name": "Cylinder_4"
    },
    {
      "mesh": 2,
      "name": "Object_7"
    },
    {
      "mesh": 3,
      "name": "Object_8"
    },
    {
      "mesh": 4,
      "name": "Object_9"
    },
    {
      "children": [
        11,
        12,
        13
      ],
      "matrix": [
        1.0,
        0.0,
        0.0,
        0.0,
        0.0,
        0.0,
        1.0,
        0.0,
        0.0,
        -1.0,
        0.0,
        0.0,
        -1.0438835620880127,
        0.15885187685489655,
        -1.0350244045257568,
        1.0
      ],
      "name": "Plane_5"
    },
    {
      "mesh": 5,
      "name": "Object_11"
    },
    {
      "mesh": 6,
      "name": "Object_12"
    },
    {
      "mesh": 7,
      "name": "Object_13"
    },
    {
      "children": [
        15
      ],
      "matrix": [
        0.4626845121383667,
        0.0,
        0.0,
        0.0,
        0.0,
        0.4626845121383667,
        0.0,
        0.0,
        0.0,
        0.0,
        0.4626845121383667,
        0.0,
        2.5096232891082764,
        1.7044124603271484,
        -0.5295064449310303,
        1.0
      ],
      "name": "Cylinder.001_6"
    },
    {
      "mesh": 8,
      "name": "Object_15"
    },
    {
      "children": [
        17
      ],
      "matrix": [
        0.33093640208244324,
        0.0,
        0.0,
        0.0,
        0.0,
        0.33093640208244324,
        0.0,
        0.0,
        0.0,
        0.0,
        0.33093640208244324,
        0.0,
        1.514929175376892,
        1.7044124603271484,
        -0.5295064449310303,
        1.0
      ],
      "name": "Cylinder.002_7"
    },
    {
      "mesh": 9,
      "name": "Object_17"
    }
  ],
  "scene": 0,
  "scenes": [
    {
      "name": "Sketchfab_Scene",
      "nodes": [
        0
      ]
    }
  ]
}
